# Blender 3.4.1
# www.blender.org
mtllib grass_surface.mtl
o GrassSurface
v -47.013588 0.000000 47.013588
v 47.013588 0.000000 47.013588
v -47.013588 0.000000 -47.013588
v 47.013588 0.000000 -47.013588
v -22.091866 0.000000 2.233598
v -22.091866 0.000000 25.010921
v 0.685457 0.000000 25.010921
v 0.685457 0.000000 2.233598
vn -0.0000 1.0000 -0.0000
vt 0.000000 0.000000
vt 1.000000 0.000000
vt 0.000000 1.000000
vt 1.000000 1.000000
vt 0.272201 0.727799
vt 0.272201 0.272201
vt 0.727799 0.272201
vt 0.727799 0.727799
s 0
f 6/6/1 5/5/1 3/3/1 1/1/1
f 7/7/1 6/6/1 1/1/1 2/2/1
f 8/8/1 7/7/1 2/2/1 4/4/1
f 5/5/1 8/8/1 4/4/1 3/3/1
