# Blender 3.4.1
# www.blender.org
mtllib wheat.mtl
o SimpleWheat
v -0.032274 0.000000 0.000000
v -0.028755 1.165431 0.000000
v 0.032274 0.000000 0.000000
v 0.028755 1.165431 0.000000
v -0.058924 1.037667 0.000000
v -0.032274 0.287205 0.000000
v 0.058924 1.037667 0.000000
v 0.032274 0.287205 0.000000
v -0.021978 0.927173 0.000000
v 0.021978 0.927173 0.000000
vn -0.0000 -0.0000 -1.0000
vt 0.375000 0.250000
vt 0.625000 0.250000
vt 0.375000 0.500000
vt 0.625000 0.500000
vt 0.584431 0.250000
vt 0.501098 0.250000
vt 0.584431 0.500000
vt 0.501098 0.500000
vt 0.565802 0.250000
vt 0.565802 0.500000
s 0
usemtl lightFront
f 5/5/1 2/2/1 4/4/1 7/7/1
f 1/1/1 6/6/1 8/8/1 3/3/1
f 9/9/1 5/5/1 7/7/1 10/10/1
f 6/6/1 9/9/1 10/10/1 8/8/1
